<svg xmlns="http://www.w3.org/2000/svg" version="1.1" xmlns:xlink="http://www.w3.org/1999/xlink" xmlns:svgjs="http://svgjs.com/svgjs" width="500.000000pt" height="500.000000pt"><svg version="1.0" xmlns="http://www.w3.org/2000/svg" width="500.000000pt" height="500.000000pt" viewBox="0 0 500.000000 500.000000" preserveAspectRatio="xMidYMid meet">

<g transform="translate(0.000000,500.000000) scale(0.100000,-0.100000)" fill="#78f9ff" stroke="none">
<path d="M2381 4613 c-14 -12 -287 -707 -826 -2098 -443 -1143 -808 -2089
-811 -2101 -3 -12 1 -28 11 -38 15 -14 58 -16 401 -16 224 0 393 4 403 9 12 7
144 372 436 1206 401 1146 420 1196 431 1163 6 -18 197 -555 423 -1193 243
-687 418 -1165 428 -1172 22 -17 764 -19 794 -3 10 6 19 20 19 31 0 38 -1620
4193 -1642 4212 -11 9 -26 17 -33 17 -7 0 -22 -8 -34 -17z"></path>
</g>
</svg><style>@media (prefers-color-scheme: light) { :root { filter: none; } }
</style></svg>